<svg xmlns="http://www.w3.org/2000/svg" 
	 viewBox="0 0 256 161.1" 
	 style="enable-background:new 0 0 256 161.1;">
	<style type="text/css">
		.st0{fill:#FFFFFF;}
		.st1{display:none;fill:#0B6DB7;}
		.st2{fill:#3D843F;}
	</style>
	<path class="st0" d="M239.4,0.3H16.1c-9,0-16.4,7.4-16.4,16.4v105.5c0,9,7.4,16.4,16.4,16.4h7.2h22.9h193.1c9,0,16.4-7.4,16.4-16.4
		V16.7C255.7,7.7,248.4,0.3,239.4,0.3"/>
	<path class="st1" d="M239.6,0H16.4C7.4,0,0,7.4,0,16.4v105.5c0,9,7.4,16.4,16.4,16.4h7.2v22.9l22.9-22.9h193.1
		c9,0,16.4-7.4,16.4-16.4V16.4C256,7.4,248.6,0,239.6,0 M50.1,52.7c0,5.8-3.5,8.7-10.5,8.7h-10c-0.9,0-1.6-0.3-2.2-0.9
		s-0.9-1.4-0.9-2.3V30.7c0-0.9,0.3-1.7,0.9-2.3s1.4-0.9,2.2-0.9h8.8c3.5,0,6.2,0.9,8,2.7c1.5,1.5,2.3,3.4,2.3,5.8v1.3
		c0,3.3-1.4,5.5-4.1,6.7c1.7,0.6,3.1,1.5,4.1,3c0.9,1.3,1.3,2.8,1.3,4.4L50.1,52.7L50.1,52.7z M42.4,38.1v-1.2c0-2.3-1.3-3.5-4-3.5
		h-5.5v8.2h4.4C40.7,41.6,42.4,40.4,42.4,38.1z M43.7,51.8v-0.9c0-1.1-0.4-2-1.2-2.6c-0.8-0.7-1.9-1-3.3-1h-6.3v8.2h6.7
		C42.3,55.5,43.7,54.3,43.7,51.8z M78.8,50.4c0,3.3-1,6-2.9,8.1c-2.2,2.2-5.2,3.3-9.2,3.3s-7-1.1-9.2-3.3c-1.9-2.1-2.9-4.7-2.9-8.1
		V30.3c0-0.9,0.3-1.7,0.9-2.3s1.4-0.9,2.2-0.9s1.6,0.3,2.2,0.9s0.9,1.4,0.9,2.3v19.8c0,4.1,1.9,6.1,5.8,6.1c3.8,0,5.7-2.1,5.7-6.1
		V30.3c0-0.9,0.3-1.7,0.9-2.3s1.4-0.9,2.2-0.9c0.9,0,1.7,0.3,2.3,0.9c0.6,0.6,0.9,1.4,0.9,2.3L78.8,50.4L78.8,50.4z M107.2,50.9
		c0,3.5-1.2,6.3-3.6,8.2c-2.2,1.8-5.2,2.7-8.9,2.7c-3.5,0-6.4-0.4-8.7-1.3c-1.4-0.5-2.1-1.5-2.1-2.9c0-0.8,0.2-1.6,0.7-2.1
		c0.5-0.6,1.2-0.9,2-0.9c0.4,0,0.9,0.1,1.5,0.4c0.9,0.3,1.6,0.5,2.1,0.7c1.3,0.3,2.6,0.5,3.9,0.5c4.5,0,6.7-1.5,6.7-4.5
		c0-1-0.3-1.8-0.9-2.4c-0.6-0.6-1.8-1.1-3.6-1.6c-1.4-0.3-2.8-0.7-4.2-1c-1.8-0.4-3.2-0.9-4-1.4c-2.7-1.5-4.1-4-4.1-7.4
		c0-3.3,1.2-6,3.4-8c2.1-1.8,4.9-2.7,8.2-2.7c2.9,0,5.4,0.4,7.5,1.1c1.5,0.5,2.2,1.5,2.2,2.9c0,0.8-0.3,1.5-0.8,2.1
		c-0.5,0.6-1.2,0.9-2.1,0.9c-0.4,0-1.3-0.2-2.7-0.6c-1.4-0.4-2.6-0.6-3.6-0.6c-1.8,0-3.2,0.4-4.2,1.1s-1.5,1.7-1.5,3
		c0,1.1,0.4,2,1.1,2.6c0.6,0.5,1.8,1,3.5,1.4c1.5,0.4,3,0.7,4.5,1.1c1.7,0.5,3,1,3.9,1.5C106,45.1,107.2,47.5,107.2,50.9z M119,58.6
		c0,0.9-0.3,1.7-0.9,2.3c-0.6,0.6-1.4,0.9-2.3,0.9c-0.9,0-1.6-0.3-2.2-0.9s-0.9-1.4-0.9-2.3V30.3c0-0.9,0.3-1.7,0.9-2.3
		s1.4-0.9,2.2-0.9c0.9,0,1.7,0.3,2.3,0.9s0.9,1.4,0.9,2.3V58.6z M149.3,58.9c0,0.8-0.3,1.5-0.9,2.1c-0.6,0.6-1.3,0.8-2.2,0.8
		c-1.5,0-2.5-0.5-3.1-1.6l-11.9-19.9v18.5c0,0.8-0.3,1.5-0.9,2.1s-1.3,0.9-2.1,0.9c-0.8,0-1.5-0.3-2.1-0.9s-0.9-1.3-0.9-2.1V30.1
		c0-0.8,0.3-1.5,0.8-2.1c0.6-0.6,1.3-0.9,2.3-0.9c1.4,0,2.4,0.6,3.1,1.7l11.9,19.8V30.1c0-0.8,0.3-1.5,0.9-2.1s1.3-0.9,2.1-0.9
		c0.8,0,1.5,0.3,2.1,0.9s0.9,1.3,0.9,2.1L149.3,58.9L149.3,58.9z M177.7,58.3c0,0.9-0.3,1.6-0.9,2.2c-0.6,0.6-1.3,0.9-2.1,0.9h-15.1
		c-0.8,0-1.6-0.3-2.1-0.9s-0.9-1.3-0.9-2.2V30.6c0-0.8,0.3-1.6,0.9-2.2c0.6-0.6,1.3-0.9,2.1-0.9h14.5c0.8,0,1.6,0.3,2.1,0.9
		s0.9,1.3,0.9,2.2c0,0.8-0.3,1.6-0.9,2.2c-0.6,0.6-1.3,0.9-2.1,0.9h-11.2v7.9H173c0.8,0,1.5,0.3,2.1,0.9c0.6,0.6,0.9,1.3,0.9,2.1
		c0,0.8-0.3,1.5-0.9,2.1c-0.6,0.6-1.3,0.9-2.1,0.9h-10.1v7.9h11.8c0.8,0,1.6,0.3,2.1,0.9C177.4,56.8,177.7,57.5,177.7,58.3z
		M203.7,50.9c0,3.5-1.2,6.3-3.6,8.2c-2.2,1.8-5.2,2.7-8.9,2.7c-3.5,0-6.4-0.4-8.7-1.3c-1.4-0.5-2.1-1.5-2.1-2.9
		c0-0.8,0.2-1.6,0.7-2.1c0.5-0.6,1.2-0.9,2-0.9c0.4,0,0.9,0.1,1.5,0.4c0.9,0.3,1.6,0.5,2.1,0.7c1.3,0.3,2.6,0.5,3.9,0.5
		c4.5,0,6.7-1.5,6.7-4.5c0-1-0.3-1.8-0.9-2.4c-0.6-0.6-1.8-1.1-3.6-1.6c-1.4-0.3-2.8-0.7-4.2-1c-1.8-0.4-3.2-0.9-4-1.4
		c-2.7-1.5-4.1-4-4.1-7.4c0-3.3,1.1-6,3.4-8c2.1-1.8,4.9-2.7,8.2-2.7c2.9,0,5.4,0.4,7.5,1.1c1.5,0.5,2.2,1.5,2.2,2.9
		c0,0.8-0.3,1.5-0.8,2.1c-0.5,0.6-1.2,0.9-2.1,0.9c-0.4,0-1.3-0.2-2.7-0.6c-1.4-0.4-2.6-0.6-3.6-0.6c-1.8,0-3.2,0.4-4.2,1.1
		c-1,0.7-1.5,1.7-1.5,3c0,1.1,0.4,2,1.1,2.6c0.6,0.5,1.8,1,3.5,1.4c1.5,0.4,3,0.7,4.5,1.1c1.7,0.5,3,1,3.9,1.5
		C202.4,45.1,203.7,47.5,203.7,50.9z M230.2,50.9c0,3.5-1.2,6.3-3.6,8.2c-2.2,1.8-5.2,2.7-8.9,2.7c-3.5,0-6.4-0.4-8.7-1.3
		c-1.4-0.5-2.1-1.5-2.1-2.9c0-0.8,0.2-1.6,0.7-2.1c0.5-0.6,1.2-0.9,2-0.9c0.4,0,0.9,0.1,1.5,0.4c0.9,0.3,1.6,0.5,2.1,0.7
		c1.3,0.3,2.6,0.5,3.9,0.5c4.5,0,6.7-1.5,6.7-4.5c0-1-0.3-1.8-1-2.4c-0.6-0.6-1.8-1.1-3.6-1.6c-1.4-0.3-2.8-0.7-4.2-1
		c-1.8-0.4-3.2-0.9-4-1.4c-2.7-1.5-4-4-4-7.4c0-3.3,1.1-6,3.4-8c2.1-1.8,4.9-2.7,8.2-2.7c2.9,0,5.4,0.4,7.5,1.1
		c1.5,0.5,2.2,1.5,2.2,2.9c0,0.8-0.3,1.5-0.8,2.1c-0.5,0.6-1.2,0.9-2.1,0.9c-0.4,0-1.3-0.2-2.7-0.6c-1.4-0.4-2.6-0.6-3.6-0.6
		c-1.8,0-3.2,0.4-4.2,1.1c-1,0.7-1.5,1.7-1.5,3c0,1.1,0.4,2,1.1,2.6c0.6,0.5,1.8,1,3.5,1.4c1.5,0.4,3,0.7,4.5,1.1
		c1.7,0.5,3,1,3.9,1.5C228.9,45.1,230.2,47.5,230.2,50.9z M50.4,96.7c0,8.4-4,12.6-12,12.6h-8.8c-0.9,0-1.6-0.3-2.2-0.9
		s-0.9-1.4-0.9-2.3V78.5c0-0.9,0.3-1.7,0.9-2.3c0.6-0.6,1.4-0.9,2.2-0.9h8.8c8,0,11.9,4.2,11.9,12.6C50.4,87.9,50.4,96.7,50.4,96.7z
		M44,96.7V88c0-2.2-0.4-3.8-1.2-4.7c-1-1.2-2.6-1.8-4.8-1.8h-5.2v21.8H38c2.3,0,3.9-0.6,4.8-1.8C43.6,100.4,44,98.8,44,96.7z
		M77.2,106.1c0,0.9-0.3,1.6-0.9,2.2c-0.6,0.6-1.3,0.9-2.1,0.9H59c-0.8,0-1.6-0.3-2.1-0.9S56,107,56,106.1V78.4
		c0-0.8,0.3-1.6,0.9-2.2c0.6-0.6,1.3-0.9,2.1-0.9h14.5c0.8,0,1.6,0.3,2.1,0.9s0.9,1.3,0.9,2.2s-0.3,1.6-0.9,2.2
		c-0.6,0.6-1.3,0.9-2.1,0.9H62.4v7.9h10.1c0.8,0,1.5,0.3,2.1,0.9c0.6,0.6,0.9,1.3,0.9,2.1c0,0.8-0.3,1.5-0.9,2.1
		c-0.6,0.6-1.3,0.9-2.1,0.9H62.4v7.9h11.8c0.8,0,1.6,0.3,2.1,0.9C76.9,104.6,77.2,105.3,77.2,106.1z M106,100.5
		c0,5.8-3.5,8.7-10.5,8.7h-10c-0.9,0-1.6-0.3-2.2-0.9s-0.9-1.4-0.9-2.3V78.5c0-0.9,0.3-1.7,0.9-2.3c0.6-0.6,1.4-0.9,2.2-0.9h8.8
		c3.5,0,6.2,0.9,8,2.7c1.5,1.5,2.3,3.4,2.3,5.8v1.3c0,3.3-1.4,5.5-4.1,6.7c1.7,0.6,3.1,1.6,4.1,3c0.9,1.3,1.3,2.8,1.3,4.4V100.5z
		M98.3,85.9v-1.2c0-2.3-1.3-3.5-4.1-3.5h-5.5v8.2h4.4C96.6,89.4,98.3,88.2,98.3,85.9z M99.6,99.6v-0.9c0-1.1-0.4-2-1.2-2.6
		s-1.9-1-3.3-1h-6.3v8.2h6.7C98.2,103.3,99.6,102.1,99.6,99.6z M134.7,78.4c0,0.9-0.3,1.6-0.9,2.2c-0.6,0.6-1.3,0.9-2.2,0.9h-7.1
		v24.9c0,0.9-0.3,1.6-0.9,2.3c-0.6,0.6-1.4,0.9-2.3,0.9c-0.9,0-1.6-0.3-2.2-0.9c-0.6-0.6-0.9-1.4-0.9-2.3V81.5h-7.1
		c-0.9,0-1.6-0.3-2.2-0.9c-0.6-0.6-0.9-1.3-0.9-2.2s0.3-1.6,0.9-2.2c0.6-0.6,1.3-0.9,2.2-0.9h20.5c0.9,0,1.6,0.3,2.2,0.9
		C134.4,76.8,134.7,77.6,134.7,78.4z M160,106.1c0,0.9-0.3,1.6-0.9,2.2c-0.6,0.6-1.3,0.9-2.2,0.9H142c-0.8,0-1.6-0.3-2.1-0.9
		s-0.9-1.3-0.9-2.2v-28c0-0.9,0.3-1.7,0.9-2.3c0.6-0.6,1.4-0.9,2.2-0.9c0.9,0,1.7,0.3,2.3,0.9s0.9,1.4,0.9,2.3v25h11.6
		c0.8,0,1.6,0.3,2.2,0.9C159.7,104.6,160,105.3,160,106.1z M170.5,106.4c0,0.9-0.3,1.7-0.9,2.3c-0.6,0.6-1.4,0.9-2.3,0.9
		c-0.9,0-1.6-0.3-2.2-0.9s-0.9-1.4-0.9-2.3V78.1c0-0.9,0.3-1.7,0.9-2.3c0.6-0.6,1.4-0.9,2.2-0.9c0.9,0,1.7,0.3,2.3,0.9
		s0.9,1.4,0.9,2.3V106.4z M201.8,106.7c0,0.8-0.3,1.5-0.9,2.1c-0.6,0.6-1.3,0.8-2.3,0.8c-1.5,0-2.5-0.5-3.1-1.6l-11.9-19.9v18.5
		c0,0.8-0.3,1.5-0.9,2.1s-1.3,0.9-2.1,0.9c-0.8,0-1.5-0.3-2.1-0.9s-0.9-1.3-0.9-2.1V77.9c0-0.8,0.3-1.5,0.8-2.1
		c0.6-0.6,1.3-0.9,2.3-0.9c1.4,0,2.4,0.6,3.1,1.7l11.9,19.8V77.9c0-0.8,0.3-1.5,0.9-2.1s1.3-0.9,2.1-0.9c0.8,0,1.5,0.3,2.1,0.9
		s0.9,1.3,0.9,2.1L201.8,106.7L201.8,106.7z M230.2,106.1c0,0.9-0.3,1.6-0.9,2.2c-0.6,0.6-1.3,0.9-2.1,0.9h-15.1
		c-0.8,0-1.6-0.3-2.1-0.9s-0.9-1.3-0.9-2.2V78.4c0-0.8,0.3-1.6,0.9-2.2c0.6-0.6,1.3-0.9,2.1-0.9h14.5c0.8,0,1.6,0.3,2.1,0.9
		s0.9,1.3,0.9,2.2s-0.3,1.6-0.9,2.2c-0.6,0.6-1.3,0.9-2.1,0.9h-11.2v7.9h10.1c0.8,0,1.5,0.3,2.1,0.9c0.6,0.6,0.9,1.3,0.9,2.1
		c0,0.8-0.3,1.5-0.9,2.1c-0.6,0.6-1.3,0.9-2.1,0.9h-10.1v7.9h11.8c0.8,0,1.6,0.3,2.1,0.9C229.9,104.6,230.2,105.3,230.2,106.1z"/>
	<path class="st2" d="M239.6,0H16.4C7.4,0,0,7.4,0,16.4v105.5c0,9,7.4,16.4,16.4,16.4h7.2v22.9l22.9-22.9h193.1
		c9,0,16.4-7.4,16.4-16.4V16.4C256,7.4,248.6,0,239.6,0 M51.8,96.8c0,8.4-4,12.6-11.9,12.6H31c-0.9,0-1.6-0.3-2.2-0.9
		s-0.9-1.4-0.9-2.3V78.7c0-0.9,0.3-1.7,0.9-2.3c0.6-0.6,1.4-0.9,2.2-0.9h8.8c8,0,11.9,4.2,11.9,12.6V96.8z M45.4,96.8v-8.7
		c0-2.2-0.4-3.8-1.2-4.7c-1-1.2-2.6-1.8-4.8-1.8h-5.2v21.8h5.2c2.3,0,3.9-0.6,4.8-1.8C45.1,100.6,45.4,99,45.4,96.8z M79.6,106.3
		c0,0.9-0.3,1.6-0.9,2.2c-0.6,0.6-1.3,0.9-2.1,0.9H61.5c-0.8,0-1.6-0.3-2.1-0.9s-0.9-1.3-0.9-2.2V78.6c0-0.8,0.3-1.6,0.9-2.2
		c0.6-0.6,1.3-0.9,2.1-0.9H76c0.8,0,1.6,0.3,2.1,0.9c0.6,0.6,0.9,1.3,0.9,2.2s-0.3,1.6-0.9,2.2c-0.6,0.6-1.3,0.9-2.1,0.9H64.8v7.9
		h10.1c0.8,0,1.5,0.3,2.1,0.9c0.6,0.6,0.9,1.3,0.9,2.1c0,0.8-0.3,1.5-0.9,2.1s-1.3,0.9-2.1,0.9H64.8v7.9h11.8c0.8,0,1.6,0.3,2.1,0.9
		C79.3,104.8,79.6,105.5,79.6,106.3z M107.4,100.7c0,5.8-3.5,8.7-10.5,8.7H87c-0.9,0-1.6-0.3-2.2-0.9s-0.9-1.4-0.9-2.3V78.7
		c0-0.9,0.3-1.7,0.9-2.3c0.6-0.6,1.4-0.9,2.2-0.9h8.8c3.5,0,6.2,0.9,8.1,2.7c1.5,1.5,2.3,3.4,2.3,5.8v1.3c0,3.3-1.4,5.5-4.1,6.7
		c1.7,0.6,3.1,1.6,4.1,3c0.9,1.3,1.3,2.8,1.3,4.4L107.4,100.7L107.4,100.7z M99.7,86.1v-1.2c0-2.3-1.3-3.5-4.1-3.5h-5.5v8.2h4.4
		C98,89.6,99.7,88.4,99.7,86.1z M101,99.8v-0.9c0-1.1-0.4-2-1.2-2.6s-1.9-1-3.3-1h-6.3v8.2h6.7C99.6,103.5,101,102.3,101,99.8z
		M136.1,78.6c0,0.9-0.3,1.6-0.9,2.2c-0.6,0.6-1.3,0.9-2.2,0.9H126v24.9c0,0.9-0.3,1.6-0.9,2.2c-0.6,0.6-1.4,1-2.3,1
		c-0.9,0-1.6-0.3-2.3-1c-0.6-0.6-0.9-1.4-0.9-2.2V81.7h-7.1c-0.9,0-1.6-0.3-2.2-0.9c-0.6-0.6-0.9-1.3-0.9-2.2s0.3-1.6,0.9-2.2
		c0.6-0.6,1.3-0.9,2.2-0.9H133c0.9,0,1.6,0.3,2.2,0.9C135.8,77,136.1,77.8,136.1,78.6z M161.4,106.3c0,0.9-0.3,1.6-0.9,2.2
		c-0.6,0.6-1.3,0.9-2.2,0.9h-14.9c-0.8,0-1.6-0.3-2.1-0.9s-0.9-1.3-0.9-2.2v-28c0-0.9,0.3-1.7,0.9-2.3c0.6-0.6,1.4-0.9,2.2-0.9
		c0.9,0,1.7,0.3,2.3,0.9s0.9,1.4,0.9,2.3v25h11.6c0.8,0,1.6,0.3,2.2,0.9C161.1,104.8,161.4,105.5,161.4,106.3z M171.9,106.6
		c0,0.9-0.3,1.7-0.9,2.3c-0.6,0.6-1.4,0.9-2.3,0.9c-0.9,0-1.6-0.3-2.2-0.9s-0.9-1.4-0.9-2.3V78.3c0-0.9,0.3-1.7,0.9-2.3
		c0.6-0.6,1.4-0.9,2.2-0.9c0.9,0,1.7,0.3,2.3,0.9s0.9,1.4,0.9,2.3V106.6z M203.2,106.9c0,0.8-0.3,1.5-0.9,2.1s-1.3,0.8-2.3,0.8
		c-1.5,0-2.5-0.5-3.1-1.6l-11.9-19.9v18.5c0,0.8-0.3,1.5-0.9,2.1s-1.3,0.9-2.1,0.9c-0.8,0-1.5-0.3-2.1-0.9s-0.9-1.3-0.9-2.1V78.1
		c0-0.8,0.3-1.5,0.8-2.1c0.6-0.6,1.3-0.9,2.3-0.9c1.4,0,2.4,0.6,3.1,1.7l11.9,19.8V78.1c0-0.8,0.3-1.5,0.9-2.1s1.3-0.9,2.1-0.9
		c0.8,0,1.5,0.3,2.1,0.9s0.9,1.3,0.9,2.1L203.2,106.9L203.2,106.9z M231.6,106.3c0,0.9-0.3,1.6-0.9,2.2c-0.6,0.6-1.3,0.9-2.1,0.9
		h-15.1c-0.8,0-1.6-0.3-2.1-0.9s-0.9-1.3-0.9-2.2V78.6c0-0.8,0.3-1.6,0.9-2.2c0.6-0.6,1.3-0.9,2.1-0.9H228c0.8,0,1.6,0.3,2.1,0.9
		c0.6,0.6,0.9,1.3,0.9,2.2s-0.3,1.6-0.9,2.2c-0.6,0.6-1.3,0.9-2.1,0.9h-11.2v7.9h10.1c0.8,0,1.5,0.3,2.1,0.9c0.6,0.6,0.9,1.3,0.9,2.1
		c0,0.8-0.3,1.5-0.9,2.1c-0.6,0.6-1.3,0.9-2.1,0.9h-10.1v7.9h11.8c0.8,0,1.6,0.3,2.1,0.9C231.3,104.8,231.6,105.5,231.6,106.3z
		M51.1,60.7c-0.6,0.6-1.3,0.8-2.2,0.8c-1.4,0-2.4-0.5-3.1-1.6L34,40.3v18.3c0,0.8-0.3,1.5-0.8,2.1s-1.2,0.8-2,0.8s-1.5-0.3-2-0.8
		s-0.8-1.2-0.8-2.1V30.1c0-0.8,0.3-1.5,0.8-2.1c0.5-0.6,1.3-0.9,2.3-0.9c1.4,0,2.4,0.5,3.1,1.7l11.8,19.6V30.1c0-0.8,0.3-1.5,0.8-2.1
		c0.6-0.6,1.2-0.9,2-0.9c0.8,0,1.5,0.3,2.1,0.9c0.6,0.6,0.9,1.3,0.9,2.1v28.5C52,59.4,51.7,60.1,51.1,60.7z M81.5,59.3
		c-0.1,0.5-0.4,0.9-0.7,1.2c-0.3,0.3-0.7,0.6-1.1,0.8s-0.9,0.3-1.3,0.3c-0.7,0-1.3-0.2-1.9-0.6c-0.6-0.4-1-1-1.2-1.9
		c-0.2-0.8-0.4-1.7-0.6-2.5c-0.2-0.8-0.4-1.6-0.6-2.4H63.3c-0.2,0.8-0.4,1.6-0.6,2.4c-0.2,0.8-0.4,1.7-0.6,2.5
		c-0.2,0.9-0.6,1.5-1.2,1.9s-1.2,0.6-1.8,0.6c-0.5,0-0.9-0.1-1.3-0.3c-0.4-0.2-0.8-0.4-1.1-0.8c-0.3-0.3-0.5-0.7-0.7-1.2
		c-0.1-0.5-0.1-1,0-1.6c1.1-4.8,2.4-9.5,3.8-14s3-8.9,4.8-13.3c0.6-1.4,1.2-2.3,1.9-2.7c0.7-0.4,1.4-0.6,2.1-0.6s1.4,0.2,2.2,0.6
		c0.8,0.4,1.4,1.3,2,2.7c1.8,4.4,3.4,8.8,4.8,13.3s2.7,9.1,3.8,14C81.7,58.2,81.7,58.8,81.5,59.3z M68.7,37c-0.7,1.9-1.4,3.8-2,5.7
		s-1.2,3.8-1.9,5.8h7.8C71.4,44.6,70.1,40.8,68.7,37z M105,32.8c-0.6,0.6-1.3,0.9-2.2,0.9h-7v24.6c0,0.9-0.3,1.6-0.9,2.2
		s-1.4,0.9-2.2,0.9c-0.9,0-1.6-0.3-2.2-0.9s-0.9-1.4-0.9-2.2V33.7h-7c-0.9,0-1.6-0.3-2.2-0.9c-0.6-0.6-0.9-1.3-0.9-2.2
		c0-0.9,0.3-1.6,0.9-2.2s1.3-0.9,2.2-0.9h20.3c0.9,0,1.6,0.3,2.2,0.9c0.6,0.6,0.9,1.3,0.9,2.2C105.9,31.5,105.6,32.2,105,32.8z
		M114.9,60.6c-0.6,0.6-1.4,0.9-2.2,0.9s-1.6-0.3-2.2-0.9c-0.6-0.6-0.9-1.4-0.9-2.2v-28c0-0.9,0.3-1.6,0.9-2.2s1.3-0.9,2.2-0.9
		s1.6,0.3,2.2,0.9c0.6,0.6,0.9,1.4,0.9,2.2v28C115.8,59.2,115.5,60,114.9,60.6z M144.9,53.7c-0.4,1.5-1.1,2.8-2.1,4
		c-0.9,1.2-2.2,2.1-3.7,2.8s-3.4,1.1-5.6,1.1c-2.2,0-4.1-0.3-5.7-1.1c-1.5-0.7-2.8-1.6-3.7-2.8s-1.6-2.5-2-4s-0.6-3-0.6-4.6v-9.5
		c0-1.6,0.2-3.1,0.6-4.6c0.4-1.5,1.1-2.8,2-4s2.2-2.1,3.7-2.8c1.5-0.7,3.4-1.1,5.7-1.1s4.1,0.3,5.6,1.1c1.5,0.7,2.8,1.6,3.7,2.8
		c0.9,1.2,1.6,2.5,2.1,4c0.4,1.5,0.6,3,0.6,4.6v9.5C145.5,50.7,145.3,52.2,144.9,53.7z M139.1,39.6c0-1-0.1-1.8-0.2-2.7
		s-0.5-1.5-0.9-2.1c-0.4-0.6-1-1-1.8-1.4s-1.6-0.5-2.7-0.5c-1.1,0-2,0.2-2.7,0.5s-1.3,0.8-1.8,1.4c-0.4,0.6-0.8,1.3-0.9,2.1
		c-0.2,0.8-0.2,1.7-0.2,2.7v9.5c0,1,0.1,1.9,0.2,2.7c0.2,0.8,0.5,1.5,0.9,2.1c0.4,0.6,1,1.1,1.8,1.4s1.6,0.5,2.7,0.5
		c1.1,0,2-0.2,2.7-0.5c0.7-0.3,1.3-0.8,1.8-1.4c0.4-0.6,0.8-1.3,0.9-2.1c0.2-0.8,0.2-1.7,0.2-2.7V39.6z M174.9,60.7
		c-0.6,0.6-1.3,0.8-2.2,0.8c-1.4,0-2.4-0.5-3.1-1.6l-11.8-19.6v18.3c0,0.8-0.3,1.5-0.9,2.1s-1.2,0.8-2.1,0.8s-1.5-0.3-2.1-0.8
		s-0.9-1.2-0.9-2.1V30.1c0-0.8,0.3-1.5,0.8-2.1c0.5-0.6,1.3-0.9,2.3-0.9c1.4,0,2.4,0.5,3.1,1.7l11.8,19.6V30.1c0-0.8,0.3-1.5,0.9-2.1
		c0.6-0.6,1.2-0.9,2.1-0.9s1.5,0.3,2.1,0.9c0.6,0.6,0.9,1.3,0.9,2.1v28.5C175.8,59.4,175.5,60.1,174.9,60.7z M205.3,59.3
		c-0.1,0.5-0.4,0.9-0.7,1.2c-0.3,0.3-0.7,0.6-1.1,0.8c-0.4,0.2-0.9,0.3-1.3,0.3c-0.7,0-1.3-0.2-1.9-0.6c-0.6-0.4-1-1-1.2-1.9
		c-0.2-0.8-0.4-1.7-0.6-2.5c-0.2-0.8-0.4-1.6-0.6-2.4h-10.8c-0.2,0.8-0.4,1.6-0.6,2.4s-0.4,1.7-0.6,2.5c-0.2,0.9-0.6,1.5-1.1,1.9
		c-0.6,0.4-1.1,0.6-1.8,0.6c-0.5,0-0.9-0.1-1.3-0.3c-0.4-0.2-0.8-0.4-1.1-0.8c-0.3-0.3-0.5-0.7-0.7-1.2c-0.1-0.5-0.1-1,0-1.6
		c1.1-4.8,2.4-9.5,3.8-14s3-8.9,4.8-13.3c0.6-1.4,1.2-2.3,2-2.7c0.7-0.4,1.4-0.6,2.1-0.6s1.4,0.2,2.2,0.6s1.4,1.3,2,2.7
		c1.8,4.4,3.4,8.8,4.8,13.3s2.7,9.1,3.8,14C205.5,58.2,205.4,58.8,205.3,59.3z M192.5,37c-0.7,1.9-1.4,3.8-2,5.7s-1.2,3.8-1.9,5.8
		h7.8C195.2,44.6,193.9,40.8,192.5,37z M229.4,60.2c-0.6,0.6-1.3,0.9-2.1,0.9h-14.8c-0.8,0-1.5-0.3-2.1-0.9c-0.6-0.6-0.9-1.3-0.9-2.2
		V30.3c0-0.9,0.3-1.6,0.9-2.2c0.6-0.6,1.3-0.9,2.2-0.9s1.6,0.3,2.2,0.9c0.6,0.6,0.9,1.4,0.9,2.2v24.7h11.4c0.8,0,1.5,0.3,2.1,0.9
		s0.9,1.3,0.9,2.1C230.3,58.9,230,59.6,229.4,60.2z"/>
</svg>
