<svg id="Layer_1" xmlns="http://www.w3.org/2000/svg" viewBox="0 0 558.1 160.8"><path d="M210.6 61.2c.4 1.4-.1 2.2-1.2 2.6L198.7 67c-1.3.4-2 0-2.4-1.3-1.7-5.4-5.2-8.4-11.8-8.4-10.1 0-13.5 5.9-13.5 13.9v18.4c0 8 3.4 13.9 13.5 13.9 8.3 0 12.7-3.9 12.7-12.3v-2.4h-11.1c-.9 0-1.5-.5-1.5-1.6V77c0-1 .6-1.6 1.5-1.6h24.2c1 0 1.6.5 1.6 1.5v15.4c0 14.5-10.7 25.5-27.3 25.5-19.7 0-28.9-11.7-28.9-27.7V70.7c0-16 9.2-27.7 28.9-27.7 15.9 0 23.1 9.1 26 18.2m54.2 18.2v35.7c0 .9-.6 1.5-1.5 1.5h-10.9c-1 0-1.6-.6-1.6-1.5v-5.8c-3.3 5.2-8.5 8.4-15 8.4-10.3 0-16.9-6.6-16.9-16.8s6.2-15.8 21.5-16.9c3.3-.3 6.6-.3 9.9-.1v-4c0-5.3-2.8-7.4-7.5-7.4s-6.2 2-7.5 5c-.5 1.2-.9 1.4-2 1.1l-10.9-2.8c-1.1-.3-1.2-.9-1-1.7 1.5-7.8 8.9-13.6 22-13.6 13.7.1 21.4 6.6 21.4 18.9m-14.6 18.7V93c-3.1-.1-5.9 0-8.7.3-5.5.7-8.5 2.4-8.5 6.6 0 3.9 2.6 5.9 6.8 5.9 4.9 0 8.7-2.7 10.4-7.7m53.9-37.5c6.9 0 11.5 4.1 13.6 9.9 4.1-5.9 9-9.9 15.9-9.9 9.6 0 15 7.6 15 19v35.5c0 .9-.8 1.5-1.8 1.5h-11.4c-1 0-1.8-.6-1.8-1.5V82.2c0-4.9-2.2-7.9-6-7.9-4.1 0-7 3.4-8.5 8.5v32.3c0 1-.7 1.5-1.4 1.5h-12.3c-.9 0-1.3-.6-1.3-1.5V82.2c0-4.9-2.2-7.9-6-7.9-4.2 0-7.1 3.6-8.5 8.6v32.2c0 .9-.5 1.5-1.5 1.5H276c-1 0-1.5-.6-1.5-1.5V63.2c0-.7.5-1.4 1.5-1.4h11.6c1 0 1.5.7 1.5 1.4v6.2c3.3-4.5 8-8.8 15-8.8m106.7 1.2c.3 1.3-.1 2.3-1.3 2.6L399 67.5c-1.3.4-2-.1-2.4-1.3-1.5-4.9-4.1-8.9-11.4-8.9-9 0-11.9 5.9-11.9 13.9v18.4c0 8 3.3 13.9 11.9 13.9 7.7 0 10.7-4.4 11.9-9.8.3-1.2 1.1-1.8 2.4-1.3l10.5 3.4c1.2.4 1.6 1.3 1.3 2.6-2.5 10.7-10.2 19.4-26.2 19.4-18 0-27.1-11.7-27.1-27.7V70.7c0-16 9.3-27.7 27.1-27.7 15.6 0 23 8.3 25.7 18.8m52.7 17.6v35.7c0 .9-.6 1.5-1.5 1.5h-10.9c-1 0-1.6-.6-1.6-1.5v-5.8c-3.3 5.2-8.5 8.4-15 8.4-10.3 0-16.9-6.6-16.9-16.8s6.2-15.8 21.5-16.9c3.3-.3 6.6-.3 9.9-.1v-4c0-5.3-2.8-7.4-7.5-7.4s-6.2 2-7.5 5c-.5 1.2-.9 1.4-2 1.1l-10.9-2.8c-1.1-.3-1.2-.9-1-1.7 1.5-7.8 8.9-13.6 22-13.6 13.7.1 21.4 6.6 21.4 18.9m-14.6 18.7V93c-3.1-.1-5.9 0-8.7.3-5.5.7-8.5 2.4-8.5 6.6 0 3.9 2.6 5.9 6.8 5.9 4.9 0 8.7-2.7 10.4-7.7m56.9-35.3v10.6c0 1.3-.5 1.8-1.8 1.8h-1.6c-7.9 0-12.6 3.6-14.1 9.5v30.5c0 1-.7 1.5-1.3 1.5h-12.5c-.6 0-1.3-.5-1.3-1.5V63.3c0-.9.6-1.4 1.5-1.4H486c1.2 0 1.5.8 1.5 1.6v7.3c2.6-4.8 7.4-9.6 15.9-9.6 2-.1 2.4.2 2.4 1.6m19.5 30.9v2.1c0 5.7 3 9.8 10 9.8s8.7-2.6 10.5-5.8c.9-1.5 1.3-1.7 2.9-1l7.8 4c1.6.8 1.7 1.6 1 3.1-3.4 7.6-11.8 12-22.3 12-15.8 0-24.1-9.4-24.1-22.3V82.9c0-12.5 7.8-22.3 24-22.3s23 9.8 23 22v8.7c0 1.5-.5 2.5-2.6 2.5h-30.2v-.1zm0-11.5v1.9h19.1v-1.9c0-5.3-3-9.5-9.5-9.5s-9.6 4.1-9.6 9.5m-353.9 56.6c.1.3 0 .5-.3.6l-2.4.7c-.3.1-.5 0-.6-.3-.6-1.8-1.7-2.7-3.8-2.7-2.9 0-4.3 1.6-4.3 4.4v5.8c0 2.8 1.3 4.4 4.3 4.4 2.6 0 4-1.2 4-3.8v-1.4h-3.5c-.2 0-.4-.1-.4-.4v-2.3c0-.3.1-.4.4-.4h6.5c.3 0 .5.1.5.4v4.4c0 4-3 6.9-7.5 6.9-5.2 0-7.9-3-7.9-7.6v-6.2c0-4.6 2.7-7.6 7.9-7.6 4.1.2 6.2 2.4 7.1 5.1zm16 5.3v10.4c0 .3-.1.4-.4.4h-2.5c-.3 0-.4-.1-.4-.4v-1.8c-1 1.6-2.5 2.5-4.5 2.5-2.9 0-4.8-1.9-4.8-4.7s1.9-4.5 5.9-4.7c1.1-.1 2.1-.1 3.2 0v-1.4c0-1.7-1-2.5-2.6-2.5s-2.2.6-2.6 1.7c-.1.3-.2.4-.5.3l-2.5-.6c-.3-.1-.3-.2-.3-.5.5-2.2 2.5-3.7 6-3.7 3.8-.1 6 1.6 6 5zm-3.4 5.7v-1.9c-1 0-1.9 0-2.9.1-1.8.2-2.9.8-2.9 2.3 0 1.3.9 2.1 2.4 2.1 1.5-.1 2.8-1 3.4-2.6zm15-10.8c2.1 0 3.3 1.2 3.8 2.8 1.1-1.7 2.6-2.8 4.5-2.8 2.7 0 4.2 2 4.2 5.1v10.4c0 .3-.2.4-.5.4h-2.6c-.3 0-.5-.1-.5-.4v-9.7c0-1.6-.7-2.6-2-2.6s-2.3 1-2.9 2.6v9.7c0 .3-.1.4-.4.4h-2.8c-.3 0-.4-.1-.4-.4v-9.7c0-1.6-.7-2.6-2-2.6-1.4 0-2.4 1.2-2.9 2.7v9.6c0 .3-.1.4-.4.4h-2.7c-.3 0-.4-.1-.4-.4v-14.8c0-.2.1-.4.4-.4h2.6c.3 0 .4.2.4.4v1.9c1.2-1.4 2.6-2.6 4.6-2.6zm20.1-5.3v7.6c.6-1.1 2.1-2.3 4.4-2.3 3.2 0 5.3 2.5 5.3 6v4.2c0 3.6-2.1 6-5.4 6-2.2 0-3.8-1.2-4.4-2.3v1.6c0 .2-.1.4-.4.4H216c-.3 0-.4-.1-.4-.4v-20.8c0-.2.1-.4.4-.4h2.8c.1 0 .3.2.3.4zm0 11.8v3.2c0 2.2 1.4 3.4 3.2 3.4 2 0 3-1.2 3-3.4v-3.2c0-2.2-1-3.5-3-3.5-1.8.1-3.2 1.3-3.2 3.5zm16.8-11.8v20.7c0 .3-.1.4-.4.4h-2.7c-.3 0-.4-.1-.4-.4v-20.7c0-.3.1-.4.4-.4h2.7c.3 0 .4.1.4.4zm7.5.1v2.7c0 .3-.2.5-.5.5h-2.5c-.4 0-.5-.2-.5-.5v-2.7c0-.3.2-.5.5-.5h2.5c.3 0 .5.2.5.5zm0 5.9v14.8c0 .3-.1.4-.4.4h-2.7c-.3 0-.4-.1-.4-.4v-14.8c0-.3.1-.4.4-.4h2.7c.2 0 .4.1.4.4zm7.4 5.1v9.6c0 .3-.1.4-.4.4h-2.7c-.3 0-.4-.1-.4-.4v-14.8c0-.2.1-.4.4-.4h2.6c.3 0 .4.2.4.4v1.9c1-1.4 2.5-2.6 4.7-2.6 3 0 4.6 2.1 4.6 5.3v10.2c0 .3-.1.4-.4.4h-2.7c-.3 0-.4-.1-.4-.4v-9.6c0-1.7-.8-2.7-2.4-2.7-1.5 0-2.7 1.1-3.3 2.7zm26.1 11.1c0 2.6-2 4.9-7.3 4.9-4.8 0-6.7-1.7-6.7-4.2 0-1.3.8-2.6 2.4-3.2-.7-.6-1.1-1.4-1.1-2.1 0-1 .5-1.8 1.6-2.3-1.6-.9-2.4-2.5-2.4-4.4 0-3.1 1.9-5.4 6.1-5.4h7c.2 0 .3.2.3.4v2c0 .3-.2.4-.4.4h-2.5c.8.7 1.4 1.7 1.4 3.2 0 2.7-1.9 4.7-5.8 4.7h-1c-.9 0-1.3.4-1.3.9s.4.9 1.3.9h3.2c3.7 0 5.2 1.8 5.2 4.2zm-3.3.3c0-.9-.5-1.8-2.3-1.8h-2.8c-1.7 0-2.3.9-2.3 1.8 0 1.3 1 2.1 3.7 2.1s3.7-.8 3.7-2.1zm-7.1-11.6c0 1.7 1 2.8 2.9 2.8 1.8 0 2.8-1 2.8-2.8 0-1.7-.9-2.8-2.8-2.8-1.8.1-2.9 1.1-2.9 2.8zm34.2-6.4c.1.3 0 .5-.3.6l-2.2.8c-.3.1-.5 0-.6-.3-.6-1.6-1.7-2.3-3.5-2.3-2 0-3.2.9-3.2 2.5 0 1.4.9 2.1 4.7 3.4 3.8 1.4 5.4 3.2 5.4 6.1 0 3.5-2.9 6.1-7.1 6.1-3.8 0-6.3-1.7-7.1-4.9-.1-.3 0-.5.3-.6l2.3-.8c.4-.1.5 0 .6.3.4 1.8 1.7 2.7 3.9 2.7s3.5-1 3.5-2.6c0-1.5-.8-2.2-4.1-3.4-4.3-1.6-6-3.3-6-6.4s2.7-5.8 6.8-5.8c3.2.3 5.6 1.8 6.6 4.6zm3.6 11.6v-10.2c0-.3.2-.4.4-.4h2.7c.3 0 .4.1.4.4v9.6c0 1.7.8 2.7 2.4 2.7 1.5 0 2.7-1.1 3.3-2.7v-9.6c0-.3.1-.4.4-.4h2.7c.3 0 .4.1.4.4v14.8c0 .2-.1.4-.4.4H314c-.3 0-.4-.2-.4-.4v-1.9c-1 1.4-2.6 2.6-4.7 2.6-3 0-4.6-2.1-4.6-5.3zm17 10.7c-.2 0-.4-.1-.4-.4v-20.5c0-.2.1-.4.4-.4h2.6c.2 0 .4.1.4.4v1.6c.6-1.1 2.2-2.3 4.4-2.3 3.4 0 5.4 2.4 5.4 6v4.2c0 3.6-2.1 6-5.3 6-2.3 0-3.8-1.2-4.4-2.3v7.3c0 .2-.1.4-.4.4h-2.7zm9.4-11.9v-3.2c0-2.2-1-3.4-3-3.4-1.8 0-3.2 1.2-3.2 3.4v3.2c0 2.2 1.4 3.5 3.2 3.5 2 0 3-1.3 3-3.5zm7.5 11.9c-.2 0-.4-.1-.4-.4v-20.5c0-.2.1-.4.4-.4h2.6c.2 0 .4.1.4.4v1.6c.6-1.1 2.2-2.3 4.4-2.3 3.4 0 5.4 2.4 5.4 6v4.2c0 3.6-2.1 6-5.3 6-2.3 0-3.8-1.2-4.4-2.3v7.3c0 .2-.1.4-.4.4h-2.7zm9.4-11.9v-3.2c0-2.2-1-3.4-3-3.4-1.8 0-3.2 1.2-3.2 3.4v3.2c0 2.2 1.4 3.5 3.2 3.5 1.9 0 3-1.3 3-3.5zm19.9-3.4v3.7c0 3.7-2.1 6.3-6.6 6.3s-6.6-2.6-6.6-6.2v-3.7c0-3.7 2.1-6.3 6.6-6.3s6.6 2.6 6.6 6.2zm-9.7.2v3.4c0 2.1 1 3.3 3.1 3.3s3.1-1.2 3.1-3.3v-3.4c0-2.1-1-3.4-3.1-3.4s-3.1 1.3-3.1 3.4zm21.9-5.9v2.5c0 .3-.1.4-.5.4h-.4c-2.3 0-3.6 1.2-4.2 2.9v9.2c0 .3-.2.4-.3.4h-2.8c-.2 0-.4-.1-.4-.4v-14.8c0-.3.2-.4.4-.4h2.6c.3 0 .4.2.4.4v2.2c.8-1.4 2.3-2.8 4.7-2.8.4 0 .5 0 .5.4zm8-3.7v3.6h3.1c.2 0 .4.1.4.4v2c0 .3-.1.4-.4.4h-3.1v7.8c0 1.1.6 1.7 1.9 1.7h1.2c.3 0 .4.1.4.4v2.3c0 .3-.1.4-.4.4h-1.7c-3.2 0-4.7-1.7-4.7-4.3v-8.3h-1.9c-.3 0-.4-.1-.4-.4v-2c0-.3.1-.4.4-.4h2v-3.6c0-.2.1-.4.4-.4h2.6c.1 0 .2.2.2.4zm27.8 2.5c.1.3 0 .5-.4.6l-2.7 1c-.3.1-.5 0-.7-.3-.6-1.3-1.5-1.9-3.1-1.9-1.7 0-2.8.8-2.8 2s.8 1.7 4.6 3c3.7 1.3 5.3 3.1 5.3 6.1 0 3.6-3 6.3-7.5 6.3-4 0-6.5-1.8-7.4-5-.1-.3 0-.5.3-.6l2.9-1c.4-.1.6 0 .7.4.4 1.6 1.5 2.3 3.5 2.3 1.8 0 3-.8 3-2.1 0-1.2-.8-1.7-3.8-2.8-4.4-1.6-6.1-3.3-6.1-6.6s2.9-6 7.1-6c3.6.1 6.1 1.7 7.1 4.6zm8.9-2.4v3.4h2.9c.3 0 .5.1.5.5v2.5c0 .3-.2.5-.5.5h-2.9v6.9c0 .9.5 1.4 1.6 1.4h1.3c.3 0 .5.1.5.4v2.9c0 .3-.2.4-.5.4h-2c-3.5 0-5.1-1.9-5.1-4.6v-7.5h-1.8c-.3 0-.5-.1-.5-.5v-2.5c0-.3.2-.5.5-.5h1.9v-3.4c0-.3.1-.4.4-.4h3.3c.2.1.4.2.4.5zm18.9 8.3v10.2c0 .3-.2.4-.4.4h-3.1c-.3 0-.5-.2-.5-.4v-1.7c-.9 1.5-2.4 2.4-4.3 2.4-2.9 0-4.8-1.9-4.8-4.8s1.8-4.5 6.1-4.8c.9-.1 1.9-.1 2.8 0v-1.1c0-1.5-.8-2.1-2.1-2.1-1.4 0-1.8.6-2.1 1.4-.1.3-.3.4-.6.3l-3.1-.8c-.3-.1-.3-.3-.3-.5.4-2.2 2.5-3.9 6.3-3.9 3.9.1 6.1 1.9 6.1 5.4zm-4.2 5.4v-1.5c-.9 0-1.7 0-2.5.1-1.6.2-2.4.7-2.4 1.9 0 1.1.7 1.7 1.9 1.7 1.4 0 2.5-.8 3-2.2zm17-10.1v3c0 .4-.1.5-.5.5h-.5c-2.3 0-3.6 1-4 2.7v8.7c0 .3-.2.4-.4.4h-3.6c-.2 0-.4-.1-.4-.4v-14.8c0-.3.2-.4.4-.4h3.2c.3 0 .4.2.4.5v2.1c.7-1.4 2.1-2.7 4.5-2.7.8-.1.9 0 .9.4zm8.5-3.6v3.4h2.9c.3 0 .5.1.5.5v2.5c0 .3-.2.5-.5.5h-2.9v6.9c0 .9.5 1.4 1.6 1.4h1.3c.3 0 .5.1.5.4v2.9c0 .3-.2.4-.5.4h-1.9c-3.5 0-5.1-1.9-5.1-4.6v-7.5h-1.8c-.3 0-.5-.1-.5-.5v-2.5c0-.3.2-.5.5-.5h1.9v-3.4c0-.3.1-.4.4-.4h3.3c.1.1.3.2.3.5zm18.6 6.8c.1.3 0 .5-.3.6l-2.6.9c-.3.1-.5 0-.6-.3-.4-1.1-1.3-1.7-2.7-1.7-1.3 0-2.1.5-2.1 1.3s.6 1.1 3.6 1.9c3.5.9 4.9 2.4 4.9 4.9 0 3-2.5 5-6.3 5-3.5 0-5.9-1.4-6.7-3.8-.1-.3 0-.5.4-.7l2.3-1.1c.3-.2.5-.1.7.3.4 1.2 1.6 1.9 3.2 1.9s2.4-.5 2.4-1.4c0-.8-.9-1.3-3.7-2-3.4-.9-4.9-2.3-4.9-4.7 0-3 2.4-4.9 6.1-4.9 3.1 0 5.4 1.4 6.3 3.8zm26.7-8.1v19.8c0 .3-.1.4-.4.4H506c-.3 0-.5-.2-.5-.4v-7.9h-7.1v7.9c0 .3-.1.4-.4.4h-3.6c-.3 0-.4-.2-.4-.4v-19.8c0-.3.2-.4.5-.4h3.5c.3 0 .4.2.4.4v7.9h7.1v-7.9c0-.3.2-.4.5-.4h3.5c.3 0 .4.2.4.4zm7.7 13.7v.6c0 1.6.8 2.8 2.8 2.8s2.5-.7 3-1.7c.3-.4.4-.5.8-.3l2.2 1.1c.5.2.5.5.3.9-1 2.2-3.4 3.4-6.3 3.4-4.5 0-6.9-2.7-6.9-6.3v-3.6c0-3.6 2.2-6.3 6.9-6.3 4.4 0 6.5 2.8 6.5 6.3v2.5c0 .4-.1.7-.7.7h-8.6v-.1zm0-3.3v.5h5.4v-.5c0-1.5-.8-2.7-2.7-2.7s-2.7 1.2-2.7 2.7zm21.7-5.5v3c0 .4-.1.5-.5.5h-.5c-2.3 0-3.6 1-4 2.7v8.7c0 .3-.2.4-.4.4h-3.6c-.2 0-.4-.1-.4-.4v-14.8c0-.3.2-.4.4-.4h3.2c.3 0 .4.2.4.5v2.1c.7-1.4 2.1-2.7 4.5-2.7.8-.1.9 0 .9.4zm6.3 8.8v.6c0 1.6.8 2.8 2.8 2.8s2.5-.7 3-1.7c.3-.4.4-.5.8-.3l2.2 1.1c.5.2.5.5.3.9-1 2.2-3.4 3.4-6.3 3.4-4.5 0-6.9-2.7-6.9-6.3v-3.6c0-3.6 2.2-6.3 6.9-6.3 4.4 0 6.5 2.8 6.5 6.3v2.5c0 .4-.1.7-.7.7h-8.6v-.1zm0-3.3v.5h5.4v-.5c0-1.5-.8-2.7-2.7-2.7-1.8 0-2.7 1.2-2.7 2.7z" fill="#1a1a1a"/><path d="M130.6 98.4V62.3C130.6 27.9 102.7 0 68.3 0H2C.9 0 0 .9 0 2v96.4c0 34.4 27.9 62.3 62.3 62.3h6c34.4-.1 62.3-28 62.3-62.3m-20 1c0 23.4-17.2 41.2-44 41.2-31.7 0-46.6-18.8-46.6-44.7V64.6c0-25.8 14.8-44.7 46.6-44.7 25.7 0 37.3 14.7 41.9 29.3.6 2.2-.2 3.5-1.9 4.1l-17.2 5.1c-2.1.6-3.2 0-3.8-2.1-2.7-8.8-8.5-13.6-19-13.6-16.3 0-21.7 9.6-21.7 22.5v29.7c0 12.9 5.4 22.5 21.7 22.5 13.4 0 20.4-6.2 20.4-19.8v-3.8H69.1c-1.4 0-2.4-.8-2.4-2.6V74.8c0-1.6 1-2.6 2.4-2.6H108c1.6 0 2.6.8 2.6 2.4v24.8z" fill="#2e008b"/></svg>