<svg width="112" height="108" viewBox="0 0 112 108" fill="none" xmlns="http://www.w3.org/2000/svg">
<path d="M27.6329 21.724V23.5869C27.6329 26.3968 28.3302 29.1602 30.4077 29.1602C32.4852 29.1602 33.0686 27.6077 33.3959 24.6581H38.4189C38.2055 30.2314 35.758 33.3518 30.4361 33.3518C22.2542 33.3518 21.8984 26.4745 21.8984 20.4976C21.8984 14.0704 23.0368 8.078 30.6496 8.078C37.2378 8.078 38.7177 12.8906 38.7177 20.2647V21.6464L27.6329 21.724ZM33.3247 18.0602C33.1967 14.412 32.7982 12.3472 30.4788 12.3472C28.1594 12.3472 27.6329 14.8932 27.6329 17.1288V18.0602H33.3247Z" fill="#EF539E"/>
<path d="M64.901 8.77664V24.7047C64.901 27.3904 63.8338 28.679 61.9128 28.679C60.2337 28.679 59.4938 27.7475 59.4938 25.3412V8.77664H48.6224V6.68084C48.6224 5.29916 49.1916 4.77133 50.7853 4.77133C51.1553 4.77133 51.5253 4.77133 51.881 4.77133V0.440013C50.8707 0.300293 49.8746 0.300293 48.8644 0.300293C45.2216 0.300293 42.9733 1.72854 42.9733 6.05986V8.77664H40.1274V12.5801H42.9733V32.7619H48.6651V12.5801H53.8874V26.5521C53.8874 31.2871 55.9791 33.3829 59.4938 33.3829C60.6297 33.4457 61.7587 33.1569 62.7507 32.5499C63.7427 31.9428 64.5571 31.0422 65.1002 29.952H65.1856V32.7619H70.5786V8.77664H64.901Z" fill="#EF539E"/>
<path d="M90.7846 8.77662V30.8058C90.7846 37.1398 88.209 40.2291 81.6208 40.2291C76.8397 40.2291 74.136 37.9005 74.136 33.802H79.5433C79.536 34.1605 79.6102 34.5154 79.7591 34.835C79.9081 35.1546 80.1273 35.4291 80.397 35.6339C80.9507 36.0501 81.6032 36.282 82.2753 36.3014C84.5663 36.3014 85.3774 34.454 85.3774 31.9701V29.5794C84.8655 30.4425 84.1727 31.1602 83.3561 31.6731C82.5395 32.186 81.6228 32.4794 80.6816 32.529C76.1709 32.529 73.9226 29.1757 73.9226 20.3889C73.9226 14.7535 74.7052 8.15564 80.8381 8.15564C81.8093 8.15692 82.7585 8.47154 83.5662 9.05993C84.3739 9.64831 85.004 10.4842 85.3774 11.4623V8.77662H90.7846ZM82.318 27.7941C84.6943 27.7941 85.3916 24.9841 85.3916 20.9167C85.3916 15.0795 84.6943 12.8906 82.4461 12.8906C79.9559 12.8906 79.5006 15.0795 79.5006 21.5377C79.5006 24.8444 79.9559 27.7475 82.3465 27.7475" fill="#EF539E"/>
<path d="M99.6066 21.724V23.5869C99.6066 26.3968 100.29 29.1602 102.453 29.1602C104.615 29.1602 105.113 27.6077 105.441 24.6581H110.421C110.222 30.2314 107.774 33.3518 102.453 33.3518C94.2705 33.3518 93.9148 26.4745 93.9148 20.4976C93.9148 14.0704 95.0532 8.078 102.666 8.078C109.254 8.078 110.72 12.8906 110.72 20.2647V21.6464L99.6066 21.724ZM105.298 18.0602C105.17 14.412 104.772 12.3472 102.453 12.3472C100.133 12.3472 99.6066 14.8932 99.6066 17.1288V18.0602H105.298Z" fill="#EF539E"/>
<path d="M0.171143 0.998901H11.0709C15.909 0.998901 18.8545 3.76225 18.8545 9.21133C18.8545 13.465 17.2892 16.3215 13.9738 17.0822V17.1754C17.9865 17.7498 18.6126 20.1716 18.6837 26.9247C18.6837 30.278 18.8972 32.0167 20.0071 32.6377V32.9016H13.6038C13.0716 31.8832 12.8197 30.719 12.8781 29.5484L12.7073 23.4317C12.622 20.9323 11.5974 19.4109 9.22111 19.4109H6.07639V32.9016H0.171143V0.998901ZM6.07639 14.9709H8.53809C11.384 14.9709 12.9635 13.6358 12.9635 10.1894C13.0397 9.58201 12.9856 8.96362 12.8055 8.38294C12.6253 7.80226 12.324 7.27517 11.9253 6.84319C11.5266 6.41122 11.0414 6.08617 10.508 5.89366C9.97447 5.70115 9.4073 5.64645 8.85114 5.73386H6.07639V14.9709Z" fill="#EF539E"/>
<path d="M105.982 47.6498C105.982 47.6498 117.892 23.0281 102.581 50.4287C99.3224 56.2659 94.399 65.9532 91.5958 67.5056C88.7926 69.0581 82.93 70.5173 78.2058 72.1629C72.8555 74.0103 66.4665 77.1463 63.2933 76.9134C60.1201 76.6805 27.7195 70.4397 21.2593 69.4306C14.2837 68.2186 7.21431 67.7713 0.156982 68.0955C0.156982 68.0955 14.4719 70.2534 21.3447 71.5885C29.7544 73.141 60.2197 80.1425 64.5597 79.7544C68.4017 79.4284 76.4414 75.7336 79.5007 74.5227C83.8834 72.7839 90.7705 71.4178 93.5595 69.4306C94.9824 68.406 99.9912 59.2621 102.553 54.6048C104.445 51.1894 105.953 47.6498 105.953 47.6498" fill="#EF539E"/>
<path d="M47.4413 54.1391C47.2278 59.7124 57.5015 62.4913 59.4937 63.0812C62.0407 63.8574 67.5191 65.3012 70.8773 64.3853C74.2354 63.4693 77.5651 62.1653 80.2972 61.6374C83.5984 61.0009 86.5582 60.706 88.28 58.5326C90.3859 55.8934 97.3299 46.3614 99.4643 43.0081C101.066 40.1557 103.615 38.0871 106.579 37.233C106.579 37.233 101.684 35.8358 97.4295 42.5579C94.5836 47.0755 87.9669 56.3126 86.2309 57.57C84.4949 58.8275 83.5558 58.3307 80.1549 59.1225C77.309 59.7745 72.2006 61.8393 70.1943 62.2274C67.1491 62.7707 63.3072 61.6374 61.1727 61.1717C57.9436 60.3254 54.7873 59.1776 51.7386 57.7408C50.1438 56.7917 48.7018 55.5646 47.4697 54.1081" fill="#EF539E"/>
<path d="M96.8461 36.9534C94.663 38.5329 92.8343 40.6288 91.4958 43.0855C90.3859 45.1813 86.7716 51.9965 85.4483 52.7417C84.1249 53.4869 84.4665 52.7417 78.9454 54.6823C74.8615 56.0639 72.2433 57.7872 70.7492 57.7872C67.8151 57.5394 64.8943 57.1301 61.9981 56.5607C59.5994 56.0358 57.2743 55.1694 55.0825 53.9837C55.0825 53.9837 58.8391 54.201 62.4961 54.7444C64.4455 55.0393 69.1555 55.9708 71.418 55.5051C72.969 55.1635 74.705 53.9526 77.7644 52.7728C80.8237 51.5929 82.7305 51.7171 84.3526 50.0249C85.9748 48.3328 88.6215 43.5357 90.7701 41.145C94.2279 37.2173 96.8461 36.9534 96.8461 36.9534Z" fill="#EF539E"/>
<path d="M69.7962 42.3093C70.3797 47.4323 57.9858 48.2086 52.4789 49.2332C45.9868 50.4965 39.5715 52.1918 33.2691 54.3097C45.5207 52.4467 50.1026 52.0121 55.3817 51.2048C59.8356 50.5372 73.3109 49.2021 72.201 41.0673C71.6176 36.8136 54.4711 36.0063 43.0448 37.5588C34.4217 38.6921 32.9703 39.1112 21.7005 42.4179C10.1461 45.8178 0.498535 47.7894 0.498535 47.7894C0.498535 47.7894 9.15008 48.2551 25.1583 43.5047C32.7354 41.1879 40.523 39.7874 48.3808 39.3286C52.7493 38.9249 69.3124 38.5834 69.7251 42.3093" fill="#EF539E"/>
<path d="M83.7838 43.5048C82.3617 44.3723 81.0588 45.4541 79.9133 46.7183C79.1321 47.7956 78.4595 48.9614 77.907 50.1958L80.1979 49.7301C80.4988 48.8551 80.8456 47.9999 81.2367 47.1685C81.9993 45.8786 82.8508 44.6538 83.7838 43.5048Z" fill="#EF539E"/>
<path d="M58.3412 39.8409C58.0416 40.3789 57.9258 41.0151 58.0143 41.6372C58.1029 42.2593 58.39 42.8272 58.825 43.2408C60.5753 45.0727 65.7406 44.5914 65.7406 44.5914C65.7406 44.5914 57.5017 47.9602 56.1641 44.1257C55.1254 41.176 58.3412 39.8409 58.3412 39.8409Z" fill="#EF539E"/>
<path d="M4.60962 82.8441H8.79309V83.9929H5.86181V86.3682H8.62234V87.517H5.86181V91.3981H4.60962V82.8441Z" fill="#231F20"/>
<path d="M11.5834 84.7842C13.3194 84.7842 13.8032 86.1814 13.8032 88.184C13.8032 90.1867 13.2341 91.5684 11.5834 91.5684C9.93281 91.5684 9.39209 90.1712 9.39209 88.184C9.39209 86.1969 9.87589 84.7842 11.5834 84.7842ZM11.5834 90.6058C12.4514 90.6058 12.608 89.8141 12.608 88.184C12.608 86.554 12.4514 85.6846 11.5834 85.6846C10.7154 85.6846 10.5731 86.6937 10.5731 88.1219C10.5731 89.5502 10.7297 90.5438 11.5834 90.5438" fill="#231F20"/>
<path d="M14.7139 84.955H15.8949V85.9641C15.9728 85.6196 16.1565 85.3147 16.4154 85.1C16.6743 84.8853 16.9928 84.7739 17.3179 84.7842C17.4124 84.772 17.5079 84.772 17.6025 84.7842V86.1038C17.4367 86.0888 17.2702 86.0888 17.1044 86.1038C16.5637 86.1038 15.9234 86.3677 15.9234 87.5631V91.4131H14.7423L14.7139 84.955Z" fill="#231F20"/>
<path d="M20.3906 84.955H21.6286L22.4539 90.0315H22.4681L23.3504 84.955H24.6879L25.5702 90.0315H25.5844L26.3955 84.955H27.5908L26.239 91.3976H24.9014L23.9907 86.3987H23.9622L23.1227 91.3976H21.7282L20.3906 84.955Z" fill="#231F20"/>
<path d="M30.2223 84.7842C31.9441 84.7842 32.4279 86.1814 32.4279 88.184C32.4279 90.1867 31.873 91.5684 30.2223 91.5684C28.5717 91.5684 28.031 90.1712 28.031 88.184C28.031 86.1969 28.5148 84.7842 30.2223 84.7842ZM30.2223 90.6058C31.0903 90.6058 31.2469 89.8141 31.2469 88.184C31.2469 86.554 31.0903 85.6846 30.2223 85.6846C29.3543 85.6846 29.2121 86.6937 29.2121 88.1219C29.2121 89.5502 29.3686 90.5438 30.2223 90.5438" fill="#231F20"/>
<path d="M33.3979 84.955H34.5221V85.6847C34.6639 85.4072 34.8699 85.1752 35.1196 85.0117C35.3693 84.8483 35.6539 84.7591 35.945 84.7532C36.2523 84.7022 36.5662 84.7749 36.828 84.9577C37.0898 85.1405 37.2817 85.421 37.368 85.7468C37.5025 85.4414 37.7152 85.1852 37.9803 85.0088C38.2454 84.8325 38.5517 84.7437 38.8621 84.7532C39.7016 84.7532 40.285 85.2189 40.285 86.4764V91.3666H39.104V86.9732C39.104 86.1349 38.8763 85.8244 38.3925 85.8244C37.9087 85.8244 37.4391 86.2435 37.4391 87.0819V91.3977H36.2581V86.9732C36.2581 86.1349 36.0304 85.8244 35.5324 85.8244C35.0343 85.8244 34.5932 86.2435 34.5932 87.0819V91.3977H33.4122L33.3979 84.955Z" fill="#231F20"/>
<path d="M42.489 88.3393V88.7895C42.489 89.6589 42.5886 90.7611 43.485 90.7611C44.3815 90.7611 44.4242 89.7054 44.4242 89.3173H45.5341C45.5592 89.6247 45.5232 89.9343 45.4285 90.2251C45.3338 90.5159 45.1826 90.7809 44.9853 91.002C44.7881 91.2231 44.5493 91.3952 44.2855 91.5063C44.0216 91.6175 43.7389 91.6651 43.4566 91.646C42.489 91.646 41.2937 91.3355 41.2937 88.3548C41.2937 86.6626 41.621 84.8618 43.4708 84.8618C45.3206 84.8618 45.5625 85.9485 45.5625 87.7338V88.4169L42.489 88.3393ZM44.3957 87.4544V87.1129C44.3957 86.3056 44.1538 85.6691 43.485 85.6691C42.8163 85.6691 42.489 86.4919 42.489 87.3302V87.4544H44.3957Z" fill="#231F20"/>
<path d="M46.559 84.9551H47.6689V85.6847C47.8189 85.3945 48.0386 85.1544 48.3044 84.9902C48.5702 84.8261 48.872 84.7442 49.1772 84.7532C50.0737 84.7532 50.6002 85.2034 50.6002 86.5075V91.3667H49.4191V86.9732C49.4191 86.1349 49.1915 85.8244 48.5938 85.8244C47.9962 85.8244 47.6547 86.2436 47.6547 87.0819V91.3977H46.4736L46.559 84.9551Z" fill="#231F20"/>
<path d="M58.3414 90.0623C58.3414 90.2952 58.4837 90.5125 58.6544 90.5125H58.8536V91.3509C58.6699 91.4425 58.4719 91.4952 58.2702 91.5061C57.7437 91.5061 57.3026 91.2732 57.2741 90.6523C57.1456 90.9427 56.943 91.1865 56.6906 91.3545C56.4382 91.5225 56.1467 91.6075 55.8512 91.5992C54.8978 91.5992 54.3144 91.0248 54.3144 89.7829C54.2825 89.5478 54.2942 89.3082 54.349 89.0782C54.4038 88.8482 54.5005 88.6326 54.6333 88.4443C54.7661 88.256 54.9323 88.0987 55.122 87.982C55.3116 87.8652 55.5209 87.7913 55.7374 87.7647L56.6623 87.4853C57.0892 87.3611 57.3595 87.2214 57.3595 86.6625C57.3595 86.1036 57.1603 85.7 56.5342 85.7C55.9081 85.7 55.6378 86.3209 55.6378 86.9419H54.5136C54.5136 85.5758 55.0401 84.8151 56.5911 84.8151C57.6441 84.8151 58.4694 85.2653 58.4694 86.3675L58.3414 90.0623ZM57.2315 87.9976C56.8071 88.2404 56.3643 88.4429 55.9081 88.603C55.7414 88.7038 55.6062 88.8567 55.52 89.0422C55.4338 89.2276 55.4004 89.4369 55.4243 89.6432C55.4243 90.171 55.6662 90.6057 56.1642 90.6057C56.6623 90.6057 57.2315 90.0158 57.2315 89.0532V87.9976Z" fill="#231F20"/>
<path d="M59.5504 84.9551H60.6745V85.6848C60.828 85.3944 61.0505 85.1546 61.3185 84.9907C61.5864 84.8268 61.89 84.7448 62.1971 84.7533C63.0935 84.7533 63.62 85.2035 63.62 86.5075V91.3667H62.439V86.9733C62.439 86.135 62.2113 85.8245 61.6137 85.8245C61.016 85.8245 60.6603 86.2436 60.6603 87.082V91.3978H59.4792L59.5504 84.9551Z" fill="#231F20"/>
<path d="M67.86 90.6063C67.7744 90.902 67.6002 91.1577 67.3653 91.3323C67.1305 91.5069 66.8486 91.5902 66.5651 91.5688C65.1421 91.5688 64.6299 90.3114 64.6299 88.0914C64.6299 85.2349 65.5548 84.7847 66.4513 84.7847C66.7338 84.7775 67.0119 84.8622 67.2501 85.0281C67.4883 85.194 67.6759 85.4335 67.7888 85.7161V82.8441H68.9699V91.3981H67.86V90.6063ZM66.7785 85.8248C66.0955 85.8248 65.8536 86.4147 65.8536 88.1535C65.8536 89.6128 66.0244 90.5442 66.8497 90.5442C67.675 90.5442 67.86 89.6283 67.86 88.2466C67.86 86.8649 67.6892 85.8248 66.7785 85.8248Z" fill="#231F20"/>
<path d="M76.7393 89.0535C76.6539 90.6059 76.1701 91.5684 74.7187 91.5684C72.9969 91.5684 72.5273 90.1712 72.5273 88.1841C72.5273 86.197 72.9969 84.7842 74.7187 84.7842C74.9986 84.7616 75.2797 84.8068 75.5418 84.9164C75.8039 85.026 76.0406 85.1974 76.235 85.4184C76.4294 85.6394 76.5767 85.9044 76.6663 86.1947C76.7559 86.4849 76.7857 86.7931 76.7535 87.0974H75.5582C75.5582 86.5074 75.4017 85.7157 74.7187 85.7468C74.0357 85.7778 73.7084 86.7558 73.7084 88.1841C73.7084 89.6123 73.8649 90.6059 74.7187 90.6059C75.5725 90.6059 75.6151 90.016 75.6151 89.0535H76.7393Z" fill="#231F20"/>
<path d="M77.5648 82.8441H78.7458V85.6851C78.896 85.4193 79.1051 85.199 79.3537 85.0444C79.6023 84.8897 79.8826 84.8058 80.1688 84.8002C81.0795 84.8002 81.5917 85.2504 81.5917 86.5545V91.4136H80.3964V86.9736C80.3964 86.1353 80.1688 85.8248 79.5854 85.8248C79.0019 85.8248 78.632 86.244 78.632 87.0823V91.3981H77.4509L77.5648 82.8441Z" fill="#231F20"/>
<path d="M82.9014 82.7506H84.0824V84.0391H82.9014V82.7506ZM82.9014 84.9551H84.0824V91.3977H82.9014V84.9551Z" fill="#231F20"/>
<path d="M86.5155 82.8441H85.3345V91.3981H86.5155V82.8441Z" fill="#231F20"/>
<path d="M90.7411 90.6063C90.6578 90.9035 90.4841 91.1609 90.2487 91.3359C90.0133 91.5108 89.7302 91.593 89.4462 91.5689C88.0233 91.5689 87.511 90.3114 87.511 88.0914C87.511 85.2349 88.4359 84.7847 89.3324 84.7847C89.629 84.758 89.9259 84.8336 90.1812 85.0007C90.4364 85.1678 90.6372 85.418 90.7553 85.7161V82.8441H91.9506V91.3981H90.8265L90.7411 90.6063ZM89.6454 85.8248C88.9624 85.8248 88.7205 86.4147 88.7205 88.1535C88.7205 89.6128 88.9055 90.5442 89.7308 90.5442C90.5561 90.5442 90.7269 89.6283 90.7269 88.2466C90.7269 86.865 90.5561 85.8248 89.6454 85.8248Z" fill="#231F20"/>
<path d="M93.0039 84.955H94.185V85.9641C94.2629 85.6196 94.4466 85.3147 94.7055 85.1C94.9644 84.8853 95.2829 84.7739 95.6079 84.7842C95.7024 84.772 95.798 84.772 95.8925 84.7842V86.1038C95.7268 86.0888 95.5602 86.0888 95.3945 86.1038C94.868 86.1038 94.2134 86.3677 94.2134 87.5631V91.4131H93.0324L93.0039 84.955Z" fill="#231F20"/>
<path d="M97.4154 88.3393V88.7895C97.4154 89.6589 97.515 90.7611 98.3973 90.7611C99.2795 90.7611 99.3506 89.7054 99.3506 89.3173H100.475C100.5 89.6247 100.464 89.9343 100.369 90.2251C100.274 90.5159 100.123 90.7809 99.926 91.002C99.7287 91.2231 99.49 91.3952 99.2262 91.5063C98.9623 91.6175 98.6796 91.6651 98.3973 91.646C97.4297 91.646 96.2344 91.3355 96.2344 88.3548C96.2344 86.6626 96.5617 84.8618 98.4115 84.8618C100.261 84.8618 100.503 85.9485 100.503 87.7338V88.4169L97.4154 88.3393ZM99.3222 87.4544V87.1129C99.3222 86.3056 99.0803 85.6691 98.3973 85.6691C97.7142 85.6691 97.4154 86.4919 97.4154 87.3302V87.4544H99.3222Z" fill="#231F20"/>
<path d="M101.485 84.9551H102.594V85.6847C102.744 85.3945 102.964 85.1544 103.23 84.9902C103.496 84.8261 103.797 84.7442 104.103 84.7532C104.999 84.7532 105.526 85.2034 105.526 86.5075V91.3667H104.345V86.9732C104.345 86.1349 104.117 85.8244 103.519 85.8244C102.922 85.8244 102.58 86.2436 102.58 87.0819V91.3977H101.399L101.485 84.9551Z" fill="#231F20"/>
<path d="M108.13 89.8142H106.878V91.3977H108.13V89.8142Z" fill="#231F20"/>
<path d="M2.23403 96.2567H3.82774L5.90524 104.811H4.59613L4.11233 102.761H1.80715L1.30911 104.811H0L2.23403 96.2567ZM3.89888 101.628L3.00242 97.4055L2.07751 101.628H3.89888Z" fill="#231F20"/>
<path d="M7.55598 105.354C7.563 105.467 7.59097 105.578 7.63819 105.679C7.68541 105.78 7.75089 105.869 7.8307 105.942C7.9105 106.014 8.00296 106.068 8.10248 106.101C8.20201 106.133 8.30654 106.143 8.40975 106.13C8.55139 106.134 8.69207 106.104 8.82211 106.043C8.95216 105.981 9.06849 105.89 9.16312 105.775C9.25775 105.66 9.32844 105.524 9.37033 105.376C9.41223 105.229 9.42433 105.073 9.40581 104.92V103.879C9.28646 104.153 9.09618 104.383 8.85848 104.54C8.62077 104.698 8.34605 104.775 8.06824 104.764C6.64529 104.764 6.28955 103.212 6.28955 101.52C6.28955 100.107 6.48876 98.1975 8.16784 98.1975C8.45142 98.1857 8.7311 98.2725 8.96643 98.4456C9.20176 98.6186 9.38056 98.8688 9.47696 99.16V98.3682H10.6011V104.578C10.6011 106.13 9.98922 107.093 8.39552 107.093C6.80181 107.093 6.43185 105.867 6.43185 105.354H7.55598ZM8.39552 103.802C9.30621 103.802 9.40581 102.529 9.40581 101.504C9.40581 100.48 9.29198 99.2221 8.53781 99.2221C7.78365 99.2221 7.54175 100.185 7.54175 101.38C7.54175 102.575 7.54175 103.74 8.46666 103.74" fill="#231F20"/>
<path d="M15.5249 103.476C15.5249 103.708 15.653 103.926 15.838 103.926H16.0372V104.764C15.8535 104.856 15.6555 104.908 15.4538 104.919C14.9273 104.919 14.4862 104.687 14.4577 104.066C14.3291 104.356 14.1265 104.6 13.8741 104.768C13.6217 104.936 13.3303 105.021 13.0348 105.013C12.0814 105.013 11.498 104.438 11.498 103.196C11.4359 102.744 11.538 102.284 11.7825 101.912C12.027 101.541 12.3946 101.289 12.8071 101.209L13.732 100.93C14.1589 100.805 14.415 100.666 14.415 100.107C14.415 99.5479 14.23 99.1443 13.6039 99.1443C12.9778 99.1443 12.7075 99.7497 12.7075 100.386H11.5691C11.5691 99.0201 12.0956 98.2594 13.6466 98.2594C14.6996 98.2594 15.5249 98.7096 15.5249 99.8118V103.476ZM14.4008 101.411C13.9849 101.658 13.546 101.855 13.0917 102.001C12.9264 102.107 12.7928 102.263 12.707 102.451C12.6211 102.638 12.5867 102.848 12.6079 103.056C12.6079 103.584 12.8498 104.019 13.3478 104.019C13.8458 104.019 14.4008 103.429 14.4008 102.467V101.411Z" fill="#231F20"/>
<path d="M16.7913 96.1636H17.9723V97.4521H16.7913V96.1636ZM16.7913 98.368H17.9723V104.811H16.7913V98.368Z" fill="#231F20"/>
<path d="M19.1676 98.3681H20.2917V99.1133C20.447 98.8259 20.6703 98.5892 20.9381 98.4281C21.206 98.267 21.5086 98.1873 21.8143 98.1974C22.7107 98.1974 23.2372 98.6476 23.2372 99.9516V104.811H22.0562V100.386C22.0562 99.548 21.8285 99.222 21.2309 99.222C20.6332 99.222 20.2917 99.6412 20.2917 100.479V104.811H19.0964L19.1676 98.3681Z" fill="#231F20"/>
<path d="M27.036 100.246V100.076C27.036 99.5634 26.8652 99.0821 26.2534 99.0821C26.1451 99.0663 26.035 99.0764 25.9306 99.1116C25.8262 99.1468 25.7302 99.2064 25.649 99.2861C25.5678 99.3658 25.5034 99.4638 25.4604 99.5733C25.4173 99.6829 25.3966 99.8013 25.3996 99.9204C25.3996 100.433 25.613 100.635 26.2391 100.867L27.036 101.209C27.4228 101.288 27.7691 101.521 28.0082 101.862C28.2473 102.203 28.3622 102.628 28.3309 103.056C28.3309 104.438 27.4059 105.028 26.2107 105.028C24.7166 105.028 24.2612 104.267 24.2612 103.025V102.761H25.3142V102.979C25.3142 103.708 25.5561 104.128 26.2391 104.128C26.9221 104.128 27.2067 103.77 27.2067 103.181C27.2155 102.964 27.1549 102.752 27.0355 102.579C26.916 102.406 26.7451 102.284 26.5522 102.234L25.5846 101.861C25.2015 101.775 24.8613 101.537 24.63 101.192C24.3986 100.848 24.2926 100.423 24.3324 99.9981C24.3324 98.7872 25.1292 98.2283 26.353 98.2283C27.8471 98.2283 28.1886 99.1908 28.1886 99.9825V100.277L27.036 100.246Z" fill="#231F20"/>
<path d="M28.6003 98.3681H29.4114V96.5518H30.6067V98.3836H31.5743V99.3462H30.6067V103.181C30.6067 103.693 30.7348 103.864 31.1474 103.864C31.2893 103.881 31.4325 103.881 31.5743 103.864V104.826C31.2563 104.901 30.9319 104.937 30.6067 104.935C29.8099 104.935 29.4114 104.687 29.4114 103.383V99.3306H28.6003V98.3681Z" fill="#231F20"/>
<path d="M37.8361 104.019C37.7505 104.315 37.5763 104.57 37.3414 104.745C37.1066 104.919 36.8247 105.003 36.5412 104.981C35.1182 104.981 34.606 103.724 34.606 101.504C34.606 98.6475 35.5309 98.1973 36.4273 98.1973C36.7083 98.1888 36.9852 98.2712 37.2233 98.4342C37.4613 98.5972 37.6498 98.8335 37.7649 99.1132V96.2567H38.946V104.811H37.8218L37.8361 104.019ZM36.7688 99.2219C36.0858 99.2219 35.8439 99.8273 35.8439 101.566C35.8439 103.025 36.0147 103.941 36.84 103.941C37.6653 103.941 37.8361 103.041 37.8361 101.659C37.8361 100.278 37.6795 99.2219 36.7688 99.2219Z" fill="#231F20"/>
<path d="M42.0623 98.1973C43.7841 98.1973 44.2679 99.5945 44.2679 101.582C44.2679 103.569 43.713 104.981 42.0623 104.981C40.4117 104.981 39.8425 103.584 39.8425 101.582C39.8425 99.5789 40.3263 98.1973 42.0339 98.1973H42.0623ZM42.0339 104.019C42.9019 104.019 43.0584 103.227 43.0584 101.582C43.0584 100.169 42.9019 99.1598 42.0339 99.1598C41.1659 99.1598 41.0236 100.169 41.0236 101.582C41.0236 103.227 41.1801 104.019 42.0339 104.019Z" fill="#231F20"/>
<path d="M45.2356 98.3681H46.3598V99.1133C46.5023 98.8377 46.7088 98.6079 46.9586 98.4471C47.2084 98.2863 47.4927 98.2002 47.7827 98.1974C48.0882 98.1456 48.4004 98.2161 48.662 98.3958C48.9235 98.5756 49.1166 98.8525 49.2057 99.1754C49.3383 98.8861 49.541 98.6419 49.7919 98.4695C50.0428 98.297 50.3322 98.2029 50.6286 98.1974C51.4682 98.1974 52.0516 98.6631 52.0516 99.905V104.811H50.8705V100.386C50.8705 99.548 50.6428 99.222 50.159 99.222C49.6752 99.222 49.2057 99.6411 49.2057 100.479V104.811H48.0246V100.386C48.0246 99.548 47.7969 99.222 47.2989 99.222C46.8009 99.222 46.374 99.6411 46.374 100.479V104.811H45.1787L45.2356 98.3681Z" fill="#231F20"/>
<path d="M54.3283 101.752V102.125C54.3283 102.994 54.4279 104.097 55.3243 104.097C56.2208 104.097 56.2635 103.041 56.2635 102.653H57.3876C57.4127 102.96 57.3767 103.27 57.282 103.561C57.1873 103.851 57.0361 104.116 56.8389 104.337C56.6416 104.559 56.4029 104.731 56.139 104.842C55.8751 104.953 55.5924 105.001 55.3101 104.981C54.3425 104.981 53.1472 104.671 53.1472 101.69C53.1472 99.9981 53.4745 98.1973 55.3243 98.1973C57.1742 98.1973 57.4161 99.2685 57.4161 101.069V101.752H54.3283ZM56.235 100.867V100.526C56.235 99.7031 55.9931 99.0822 55.3243 99.0822C54.6555 99.0822 54.3283 99.9049 54.3283 100.743V100.867H56.235Z" fill="#231F20"/>
<path d="M60.9459 100.246V100.076C60.9459 99.5634 60.7751 99.0821 60.1632 99.0821C60.0556 99.066 59.9461 99.076 59.8424 99.1113C59.7387 99.1466 59.6434 99.2064 59.5632 99.2864C59.4831 99.3664 59.4201 99.4647 59.3787 99.5743C59.3373 99.6839 59.3185 99.8021 59.3237 99.9204C59.3237 100.433 59.5229 100.635 60.149 100.867L60.9032 101.162C61.29 101.242 61.6363 101.474 61.8754 101.815C62.1145 102.156 62.2294 102.582 62.1981 103.01C62.1981 104.392 61.2731 104.981 60.0779 104.981C58.6549 104.981 58.1284 104.221 58.1284 102.979V102.761H59.1814V102.979C59.1814 103.708 59.4233 104.128 60.1063 104.128C60.7893 104.128 61.0739 103.771 61.0739 103.181C61.0834 102.966 61.0248 102.755 60.9082 102.583C60.7915 102.41 60.6239 102.287 60.4336 102.234L59.466 101.861C59.0803 101.778 58.7367 101.541 58.5025 101.197C58.2683 100.852 58.1603 100.425 58.1996 99.9981C58.1996 98.7872 58.9964 98.2283 60.2202 98.2283C61.7285 98.2283 62.0558 99.1908 62.0558 99.9825V100.278L60.9459 100.246Z" fill="#231F20"/>
<path d="M62.6101 98.3681H63.4354V96.5518H64.6165V98.3836H65.456V99.3462H64.4884V103.181C64.4884 103.693 64.6165 103.864 65.0291 103.864C65.171 103.881 65.3142 103.881 65.456 103.864V104.826C65.1427 104.9 64.8231 104.936 64.5026 104.935C63.6916 104.935 63.3074 104.687 63.3074 103.383V99.3306H62.6101V98.3681Z" fill="#231F20"/>
<path d="M66.1812 96.1636H67.3622V97.4521H66.1812V96.1636ZM66.1812 98.368H67.3622V104.811H66.1812V98.368Z" fill="#231F20"/>
<path d="M72.5706 102.466C72.5706 104.019 72.0156 104.981 70.55 104.981C68.8424 104.981 68.3586 103.584 68.3586 101.582C68.3586 99.5789 68.8424 98.1973 70.55 98.1973C70.8294 98.1743 71.11 98.2192 71.3716 98.3289C71.6332 98.4387 71.8691 98.6104 72.0625 98.8317C72.2558 99.053 72.4017 99.3184 72.4895 99.6087C72.5774 99.899 72.6051 100.207 72.5706 100.51H71.3895C71.3895 99.905 71.233 99.1287 70.5358 99.1598C69.8385 99.1908 69.5255 100.169 69.5255 101.582C69.5255 102.994 69.682 104.019 70.5358 104.019C71.3895 104.019 71.4464 103.429 71.4464 102.466H72.5706Z" fill="#231F20"/>
<path d="M75.5732 98.368H76.8539L77.8784 103.445H77.9069L78.846 98.368H80.0982L78.5472 104.811H77.1669L75.5732 98.368Z" fill="#231F20"/>
<path d="M80.8098 96.1636H81.9909V97.4521H80.8098V96.1636ZM80.8098 98.368H81.9909V104.811H80.8098V98.368Z" fill="#231F20"/>
<path d="M85.1496 98.1973C86.8714 98.1973 87.3552 99.5945 87.3552 101.582C87.3552 103.569 86.8002 104.981 85.1496 104.981C83.499 104.981 82.9583 103.584 82.9583 101.582C82.9583 99.5789 83.4421 98.1973 85.1496 98.1973ZM85.1496 104.019C86.0176 104.019 86.1741 103.227 86.1741 101.582C86.1741 100.169 86.0176 99.1598 85.1496 99.1598C84.2816 99.1598 84.1393 100.169 84.1393 101.582C84.1393 103.227 84.2958 104.019 85.1496 104.019Z" fill="#231F20"/>
<path d="M89.5036 96.2567H88.3225V104.811H89.5036V96.2567Z" fill="#231F20"/>
<path d="M91.7228 101.752V102.125C91.7228 102.994 91.8224 104.097 92.7189 104.097C93.6153 104.097 93.658 103.041 93.658 102.653H94.7821C94.8073 102.96 94.7713 103.27 94.6766 103.561C94.5818 103.851 94.4307 104.116 94.2334 104.337C94.0361 104.559 93.7974 104.731 93.5335 104.842C93.2697 104.953 92.9869 105.001 92.7046 104.981C91.737 104.981 90.5417 104.671 90.5417 101.69C90.5417 99.9981 90.869 98.1973 92.7331 98.1973C94.3695 98.1973 94.8106 99.2685 94.8106 101.069V101.752H91.7228ZM93.6296 100.867V100.526C93.6296 99.7031 93.3877 99.0822 92.7189 99.0822C92.0501 99.0822 91.7228 99.9049 91.7228 100.743V100.867H93.6296Z" fill="#231F20"/>
<path d="M95.7935 98.3681H96.9176V99.1133C97.0706 98.8271 97.2914 98.591 97.5567 98.4299C97.8221 98.2687 98.1223 98.1884 98.4259 98.1973C99.3366 98.1973 99.8489 98.6475 99.8489 99.9516V104.811H98.7532V100.386C98.7532 99.548 98.5113 99.2219 97.9279 99.2219C97.3445 99.2219 96.9745 99.6411 96.9745 100.479V104.811H95.7935V98.3681Z" fill="#231F20"/>
<path d="M105.056 102.467C105.056 104.019 104.501 104.982 103.035 104.982C101.328 104.982 100.844 103.584 100.844 101.582C100.844 99.5791 101.328 98.1974 103.035 98.1974C103.315 98.1748 103.596 98.22 103.858 98.3296C104.121 98.4392 104.357 98.6106 104.552 98.8316C104.746 99.0526 104.893 99.3176 104.983 99.6079C105.073 99.8981 105.102 100.206 105.07 100.511H103.875C103.875 99.9051 103.718 99.1289 103.021 99.16C102.324 99.191 102.011 100.169 102.011 101.582C102.011 102.994 102.167 104.019 103.021 104.019C103.875 104.019 103.932 103.429 103.932 102.467H105.056Z" fill="#231F20"/>
<path d="M106.978 101.752V102.125C106.978 102.994 107.063 104.097 107.96 104.097C108.856 104.097 108.899 103.041 108.899 102.653H110.023C110.05 102.961 110.016 103.272 109.922 103.563C109.829 103.855 109.677 104.122 109.48 104.343C109.282 104.565 109.042 104.737 108.777 104.847C108.512 104.957 108.228 105.003 107.945 104.981C106.978 104.981 105.782 104.671 105.782 101.69C105.782 99.9981 106.11 98.1973 107.974 98.1973C109.838 98.1973 110.051 99.2685 110.051 101.069V101.752H106.978ZM108.87 100.867V100.526C108.87 99.7031 108.628 99.0822 107.96 99.0822C107.291 99.0822 106.978 99.9049 106.978 100.743V100.867H108.87Z" fill="#231F20"/>
<path d="M112 103.227H110.748V104.811H112V103.227Z" fill="#231F20"/>
</svg>
