<svg xmlns="http://www.w3.org/2000/svg" width="114.5" height="145.874" viewBox="0 0 114.5 145.874">
  <g id="Group_436" data-name="Group 436" transform="translate(-0.035 -0.036)">
    <path id="Path_2" data-name="Path 2" d="M114.044,44.977a5.309,5.309,0,0,0-3.4-2.578,6.291,6.291,0,0,0-1.41-.167c-2.077-.015-4.17-.015-6.247,0-.7,0-.788.076-.788.789,0,4.655,0,9.326-.015,13.981,0,.531.152.758.713.728.864-.03,1.744-.03,2.608,0,.531.015.743-.152.728-.713-.03-1.456-.015-2.912-.015-4.443.516,0,1-.03,1.486.015.152.015.318.227.409.394.758,1.41,1.531,2.836,2.259,4.261a.776.776,0,0,0,.8.485c1.092-.015,2.184,0,3.321,0a52.168,52.168,0,0,1-1.168,7.749,53.313,53.313,0,0,1-11.706,22.67A12.369,12.369,0,0,0,98.608,96.4q0,9.917.015,19.85a.8.8,0,0,1-.47.834Q73.383,131.322,48.6,145.592c-.167.091-.334.182-.591.318V116.6a3.834,3.834,0,0,0-4.124-4.109c-5.034,0-10.084.015-15.118,0a8.1,8.1,0,0,1-8.31-8.325c.015-6.157,0-12.313,0-18.485,0-2.2-1.061-3.26-3.29-3.26-4.7,0-9.4-.061-14.1.03A2.891,2.891,0,0,1,.182,78.657c2.4-7.81,4.761-15.634,7.172-23.429.97-3.124,2.032-6.217,3.048-9.356h2.911v11.04c0,.743.076.819.819.819.834,0,1.668-.015,2.5.015.561.015.728-.212.728-.743-.015-3.488,0-6.976,0-10.463v-.682h3.2c.819,0,.895-.091.91-.925v-1.88c0-.7-.106-.8-.834-.819H11.645c.076-.258.152-.485.227-.7a78.1,78.1,0,0,1,6.156-14.922C23.276,17.545,30.266,10.236,39.758,5.52A51.768,51.768,0,0,1,56.074.561,52.971,52.971,0,0,1,85.385,4.64c13.056,5.884,21.653,15.831,26.218,29.343A57.39,57.39,0,0,1,114.044,44.977ZM31.949,42.763c.789-.015,1.592-.03,2.381-.03.44,0,.667-.167.652-.652-.03-.546,0-1.092,0-1.653V36.379h5.186V41.4c0,1.183,0,1.183,1.183,1.41-.136.076-.227.136-.318.182a7.993,7.993,0,0,0-2.957,11.146A8.511,8.511,0,0,0,49.69,56.73,1.048,1.048,0,0,0,50.1,56c.03-1.547.015-3.109.015-4.655,0-.455-.212-.652-.652-.637-.834.015-1.668.03-2.5,0-.5-.015-.667.182-.652.667.03.834,0,1.653,0,2.472-3.275.895-5.838-1.365-5.338-4.655a3.9,3.9,0,0,1,6.035-2.714c.5.318.758.227,1.046-.227.455-.7.94-1.38,1.425-2.062a.517.517,0,0,0-.152-.849c-.273-.167-.561-.349-.94-.576h3.048V56.987c0,.485.091.728.652.728,3.4-.015,6.778-.015,10.175,0,.531,0,.7-.243.682-.728-.015-.713-.03-1.441,0-2.153.03-.561-.212-.713-.743-.713-2.047.015-4.094.015-6.141.015h-.576V51.5H60.32c.728,0,.788-.061.788-.758v-.789c-.03-1.714.3-1.532-1.532-1.547H55.468V45.872H65.627V56.866c0,.789.076.849.834.849h2.381c.743,0,.819-.061.819-.8V45.842h3.215c.788,0,.895-.106.895-.88v-2.2h1.3V56.987c0,.7.015.728.743.728h2.5c.743,0,.788-.061.8-.819v-5.52h5.171v5.55c0,.758.03.789.8.789h2.381c.819,0,.834-.015.834-.819V42.612c.5.091.895.167,1.3.243v.667q0,6.733-.015,13.481c0,.5.121.713.667.713,3.4-.015,6.778-.015,10.175,0,.5,0,.682-.212.682-.682-.015-.743-.03-1.486,0-2.214.015-.516-.182-.7-.7-.7-2.047.015-4.094,0-6.141,0h-.622V51.513a3.516,3.516,0,0,1,.364-.03c1.531,0,3.063-.015,4.61,0,.485,0,.7-.182.667-.682-.03-.561,0-1.137,0-1.7,0-.682-.045-.728-.758-.728H93.664V45.811h6.353c.788,0,.864-.076.864-.88V43.006c0-.7-.091-.789-.788-.789H93.952a4.781,4.781,0,0,1-.561-.045c.227-.136.334-.2.455-.273a4.639,4.639,0,0,0,2.335-4.807,3.871,3.871,0,0,0-2.441-3.124c-1.092-.5-2.244-.88-3.366-1.319a4.7,4.7,0,0,1-1.107-.546.891.891,0,0,1,.227-1.638,2.483,2.483,0,0,1,1.441-.106,6.887,6.887,0,0,1,1.835.971c.682.485.713.531,1.289-.106.364-.379.728-.773,1.092-1.168.667-.728.667-.91-.091-1.547a7.3,7.3,0,0,0-6.717-1.456,4.072,4.072,0,0,0-3.457,3.336,4.131,4.131,0,0,0,2.123,4.473,29.509,29.509,0,0,0,2.972,1.4,15.456,15.456,0,0,1,1.441.652,1.068,1.068,0,0,1,.637,1.152,1.243,1.243,0,0,1-.97,1.061,2.858,2.858,0,0,1-2.153-.182,9.593,9.593,0,0,1-1.562-1.031c-.849-.7-.834-.713-1.653.061l-1.107,1.061c-.591.576-.637.667-.03,1.213.773.7,1.607,1.319,2.4,1.941-.622,0-1.319.015-2.017,0-.516-.015-.713.212-.7.713.03.789,0,1.592,0,2.381v2.3H79.092V42.324c.091-.03.212-.076.334-.121a7.7,7.7,0,0,0-1.835-14.937c-1.9-.167-3.821-.076-5.732-.091-.789-.015-.879.076-.879.88V42.126c-.44.167-.591-.03-.728-.379-.879-2.335-1.789-4.655-2.7-6.976-.895-2.3-1.8-4.61-2.7-6.93a.849.849,0,0,0-.925-.652,16.319,16.319,0,0,1-1.926,0,1.04,1.04,0,0,0-1.183.789c-1.35,3.548-2.729,7.1-4.079,10.645a.641.641,0,0,1-.743.485c-1.971-.015-3.942-.015-5.914-.015h-.516V36.44c1.668,0,3.29-.015,4.928,0,.5,0,.728-.167.713-.7a12.7,12.7,0,0,1,0-1.7c.045-.576-.212-.713-.728-.713-1.441.015-2.881,0-4.322,0h-.591V30.768h.591c1.971,0,3.942-.015,5.914,0,.516,0,.728-.2.713-.713-.015-.682,0-1.365,0-2.047,0-.789-.061-.849-.834-.849H46.339c-.788,0-.834.045-.834.834v13.89H44.2v-13.8c0-.895-.045-.94-.91-.94H41.078c-.864,0-.91.045-.91.895v4.5H34.982c0-1.577-.015-3.124,0-4.686,0-.516-.212-.728-.713-.713-.637.015-1.289,0-1.926,0-1.456,0-1.4-.121-1.4,1.365V42.263c-.136-.03-.258-.045-.394-.076a7.944,7.944,0,0,0-9.947,8.856,7.48,7.48,0,0,0,5.353,6.4,7.555,7.555,0,0,0,8.249-2,7.655,7.655,0,0,0,1.8-8.2A8.249,8.249,0,0,0,31.949,42.763Z" transform="translate(0)" fill="#010101"/>
    <path id="Path_3" data-name="Path 3" d="M700.4,299.2c1.125.054,2.177.036,3.229.163a2.187,2.187,0,0,1,1.687,2.195,1.984,1.984,0,0,1-1.687,2.141,31.822,31.822,0,0,1-3.229.018V299.2Z" transform="translate(-595.787 -254.037)" fill="#010101"/>
    <path id="Path_4" data-name="Path 4" d="M738.3,324.21a6.328,6.328,0,0,0,2.848-3.61c.072.018.127.018.2.036v9.324c-.544-1.034-1.052-1.977-1.542-2.9C739.316,326.114,738.808,325.171,738.3,324.21Z" transform="translate(-626.812 -272.494)" fill="#010101"/>
    <path id="Path_5" data-name="Path 5" d="M147.425,277.343c.4.163.816.326,1.215.49a9.533,9.533,0,0,1,4.825,5.46A9.537,9.537,0,0,1,141.439,295.5a9,9,0,0,1-6.4-7.655,9.5,9.5,0,0,1,11.9-10.594C147.117,277.288,147.262,277.306,147.425,277.343Zm-2.92,4.172a4.939,4.939,0,1,0,4.7,4.952A4.732,4.732,0,0,0,144.5,281.515Z" transform="translate(-115.092 -235.921)" fill="#00abff"/>
    <path id="Path_6" data-name="Path 6" d="M495,213.69v-9.6a8.051,8.051,0,0,1,3.882.49,4.771,4.771,0,0,1,2.612,5.188,4.707,4.707,0,0,1-4.245,3.791C496.506,213.617,495.762,213.654,495,213.69Z" transform="translate(-420.65 -173.449)" fill="#010101"/>
    <path id="Path_7" data-name="Path 7" d="M391.4,267.46c.272-.689.49-1.36.78-2a.673.673,0,0,1,.472-.327c1.941-.018,3.9-.018,5.841,0a.667.667,0,0,1,.508.29c.272.635.508,1.306.762,2.014C396.969,267.46,394.23,267.46,391.4,267.46Z" transform="translate(-332.774 -224.997)" fill="#010101"/>
    <path id="Path_8" data-name="Path 8" d="M404.2,217.241c.6-1.832,1.2-3.646,1.85-5.641.671,1.977,1.27,3.791,1.887,5.641Z" transform="translate(-343.213 -179.692)" fill="#010101"/>
    <path id="Path_9" data-name="Path 9" d="M166.416,302.2a4.939,4.939,0,0,1-.036,9.868,4.94,4.94,0,0,1,.036-9.868Z" transform="translate(-137.504 -256.882)" fill="#010101"/>
  </g>
</svg>
